<?xml version="1.0" encoding="utf-8"?>
<!-- Generator: Adobe Illustrator 21.1.0, SVG Export Plug-In . SVG Version: 6.00 Build 0)  -->
<svg version="1.1" id="Capa_1" xmlns="http://www.w3.org/2000/svg" xmlns:xlink="http://www.w3.org/1999/xlink" x="0px" y="0px"
	 width="82px" height="70px" viewBox="166 362 82 70" style="enable-background:new 166 362 82 70;" xml:space="preserve">
<style type="text/css">
	.st0{fill:#5165FF;}
	.st1{fill:#00D5A1;}
</style>
<g>
	<path class="st0" d="M246,402.2l-2.4,1.9L224.6,379l10.9-7c0.6-0.4,0.7-1.1,0.4-1.7c-0.4-0.6-1.1-0.7-1.7-0.4l-12,7.7
		c-0.6,0.4-0.7,1.2-0.3,1.7l2.2,2.9l-1.6,1.2l-6.2-2c-0.1,0-0.3-0.1-0.4-0.1h-14.1c-0.6,0-1,0.4-1.2,0.9l-0.8,3.2l-2-0.8
		c-0.2-0.1-0.4-0.1-0.6-0.1l-5.6,0.7l-1.9-1.1l1.8-3.1c0.3-0.6,0.1-1.3-0.4-1.6l-23.4-13.5c-0.6-0.3-1.3-0.1-1.6,0.4
		c-0.3,0.6-0.1,1.3,0.4,1.6l18.3,10.6l-15.8,27.4l-1.3-0.8c-0.6-0.3-1.3-0.1-1.6,0.4c-0.3,0.6-0.1,1.3,0.4,1.6l6.4,3.7
		c0.6,0.3,1.3,0.1,1.6-0.4l0.9-1.6l2.6,1.4c-0.8,1.6-0.8,3.7,0.4,5.3c1,1.4,2.5,2.1,4.1,2.1c0.5,0,1-0.1,1.6-0.2c0,1.1,0.3,2.1,1,3
		c1,1.3,2.5,2,4.1,2c0.5,0,1-0.1,1.5-0.2c0,1,0.3,2,1,2.9c0.8,1.1,2,1.8,3.3,2c0.3,0,0.5,0.1,0.8,0.1c0.5,0,1-0.1,1.5-0.2
		c0,1,0.3,2,1,2.9c0.8,1.1,2,1.8,3.3,2c0.3,0,0.5,0.1,0.8,0.1c1.1,0,2.1-0.3,3-1l2.8-2c0.6-0.4,1.1-1,1.5-1.6l4.9,2.7
		c0.8,0.4,1.6,0.6,2.4,0.6c0.5,0,1-0.1,1.4-0.2c1.3-0.4,2.4-1.2,3-2.4c0.5-0.9,0.7-2,0.6-3c0.3,0.1,0.6,0.1,0.9,0.1
		c1.8,0,3.5-1,4.4-2.6c0.5-0.9,0.7-2,0.6-3c0.3,0.1,0.6,0.1,0.9,0.1c1.8,0,3.5-1,4.4-2.6c0.5-0.9,0.7-2,0.6-3
		c0.3,0.1,0.6,0.1,0.9,0.1c0.5,0,1-0.1,1.4-0.2c1.3-0.4,2.4-1.2,3-2.4c0.6-1.2,0.8-2.6,0.4-3.8c-0.1-0.3-0.2-0.6-0.4-0.9l2.1-1.5
		l1.1,1.5c0.4,0.5,1.2,0.6,1.7,0.2l3.3-2.6c0.5-0.4,0.6-1.2,0.2-1.7C247.3,401.9,246.6,401.8,246,402.2z M173.1,408.2l-1.9-1.1
		l15.8-27.4l1.9,1.1L173.1,408.2z M180.5,414.1c-0.9-1.2-0.6-2.8,0.6-3.7l8.5-6.2c0.5-0.3,1-0.5,1.6-0.5c0.8,0,1.6,0.4,2.1,1
		c0.9,1.2,0.6,2.9-0.5,3.8l-8.5,6.2C183,415.6,181.3,415.3,180.5,414.1z M187.1,418.9c-0.9-1.2-0.5-2.9,0.6-3.8l6.4-4.6
		c0.2-0.2,0.4-0.3,0.7-0.4c0.4-0.2,0.8-0.2,1.2-0.2c0.8,0,1.5,0.4,2,1c0.9,1.2,0.6,2.9-0.5,3.8l-6.6,4.8
		C189.6,420.3,188,420.1,187.1,418.9z M195.4,424.7c-0.7-0.1-1.3-0.5-1.7-1.1c-0.9-1.2-0.6-2.8,0.6-3.7c0,0,4.5-3.3,4.5-3.3l0.2-0.1
		c1.2-0.8,2.8-0.6,3.7,0.5c0.9,1.2,0.6,2.9-0.5,3.8l-4.7,3.4C196.8,424.6,196.1,424.8,195.4,424.7z M207.8,425.1
		c-0.1,0.7-0.5,1.3-1.1,1.8l-2.8,2c-1.2,0.8-2.9,0.6-3.7-0.6c-0.8-1.2-0.6-2.8,0.6-3.7l2.6-1.9l0.2-0.1c1.2-0.8,2.8-0.6,3.7,0.5
		C207.7,423.7,207.9,424.4,207.8,425.1z M237.1,410.1c-0.7,1.3-2.3,1.7-3.6,1.1l-13.9-7.6c-0.6-0.3-1.3-0.1-1.6,0.5
		c-0.3,0.6-0.1,1.3,0.5,1.6l11.7,6.4c1.3,0.7,1.8,2.3,1.1,3.6c-0.7,1.3-2.3,1.8-3.6,1.1l-11.8-6.4c-0.6-0.3-1.3-0.1-1.6,0.5
		c-0.3,0.6-0.1,1.3,0.5,1.6l9.6,5.2c1.3,0.7,1.8,2.3,1.1,3.6c-0.7,1.3-2.3,1.7-3.6,1.1l-10-5.5c-0.6-0.3-1.3-0.1-1.6,0.5
		c-0.3,0.6-0.1,1.3,0.5,1.6l7.8,4.2c1.3,0.7,1.7,2.3,1.1,3.6c-0.7,1.3-2.3,1.7-3.6,1.1l-5.5-3c0-1.1-0.3-2.2-1-3.2
		c-0.9-1.2-2.3-1.9-3.8-2c0-0.1,0-0.2,0.1-0.3c0.2-1.4-0.2-2.7-1-3.8c-0.9-1.2-2.3-1.9-3.8-2c0-0.1,0-0.2,0.1-0.3
		c0.2-1.4-0.2-2.7-1-3.8c-0.9-1.2-2.3-1.9-3.8-2c0-0.1,0-0.2,0.1-0.3c0.2-1.4-0.2-2.7-1-3.8l0,0c-1.7-2.2-4.7-2.6-7-1l-8.4,6.1
		l-3-1.6l11.9-20.6l2.2,1.3c0.2,0.1,0.5,0.2,0.7,0.2l5.7-0.7l2.1,0.9l-1.2,4.7c0,0.1,0,0.2,0,0.3v10.3c0,3.5,2.8,6.3,6.3,6.3
		c3.5,0,6.3-2.8,6.3-6.3v-9.9l0.2-0.4l25.1,13.7C237.3,407.2,237.8,408.9,237.1,410.1z M237.7,404.7c-0.2-0.1-0.3-0.2-0.5-0.3
		l-24.9-13.6l0.9-1.5c0.4-0.6,0.2-1.3-0.4-1.7c-0.6-0.4-1.3-0.2-1.7,0.4l-2.6,4.2c-0.1,0.2-0.2,0.4-0.2,0.6v10.3
		c0,2.2-1.8,3.9-3.9,3.9s-3.9-1.8-3.9-3.9V393l2.3-9.2h13l6.6,2.2c0.4,0.1,0.8,0.1,1.1-0.2l2.1-1.6l14.4,18.9L237.7,404.7z"/>
	<path class="st1" d="M176.7,406.8l11.9-20.6l1.2-2.1l1.8-3.1c0.3-0.6,0.1-1.3-0.4-1.6l-23.4-13.5c-0.6-0.3-1.3-0.1-1.6,0.4
		c-0.3,0.6-0.1,1.3,0.4,1.6l18.3,10.6l-15.8,27.4l-1.3-0.8c-0.6-0.3-1.3-0.1-1.6,0.4c-0.3,0.6-0.1,1.3,0.4,1.6l6.4,3.7
		c0.6,0.3,1.3,0.1,1.6-0.4l0.9-1.6L176.7,406.8z M173.1,408.2l-1.9-1.1l15.8-27.4l1.9,1.1L173.1,408.2z M241.4,405.1l1.1,1.5
		c0.4,0.5,1.2,0.6,1.7,0.2l3.3-2.6c0.5-0.4,0.6-1.2,0.2-1.7c-0.4-0.5-1.2-0.6-1.7-0.2l-2.4,1.9L224.6,379l10.9-7
		c0.6-0.4,0.7-1.1,0.4-1.7c-0.4-0.6-1.1-0.7-1.7-0.4l-12,7.7c-0.6,0.4-0.7,1.2-0.3,1.7l2.2,2.9l1.5,1.9l14.4,18.9L241.4,405.1z"/>
	<path class="st1" d="M240.1,368.9c0.2,0,0.4-0.1,0.6-0.2l6.7-4.3c0.6-0.4,0.7-1.1,0.4-1.7c-0.4-0.6-1.1-0.7-1.7-0.4l-6.7,4.3
		c-0.6,0.4-0.7,1.1-0.4,1.7C239.3,368.7,239.7,368.9,240.1,368.9z"/>
</g>
</svg>
