<!--?xml version="1.0" encoding="utf-8"?-->
<!-- Generator: Adobe Illustrator 21.1.0, SVG Export Plug-In . SVG Version: 6.00 Build 0)  -->
<svg version="1.1" id="Слой_1" xmlns="http://www.w3.org/2000/svg" xmlns:xlink="http://www.w3.org/1999/xlink" x="0px" y="0px" width="70px" height="70px" viewBox="0 0 70 70" style="" xml:space="preserve">
<style type="text/css">
	.st0{fill:#00D5A1;}
	.st1{fill:#5165FF;}
</style>
<g>
	<path class="st0 TsNDvcIQ_0" d="M54.1,39.5c-8.4,0-15.3,6.8-15.3,15.3c0,8.4,6.8,15.3,15.3,15.3c8.4,0,15.3-6.8,15.3-15.3
		C69.4,46.3,62.5,39.5,54.1,39.5L54.1,39.5z M54.1,67.5c-7,0-12.7-5.7-12.7-12.7c0-7,5.7-12.7,12.7-12.7c7,0,12.7,5.7,12.7,12.7
		C66.8,61.7,61.1,67.5,54.1,67.5L54.1,67.5z M54.1,67.5"></path>
	<path class="st0 TsNDvcIQ_1" d="M61.7,53.5h-6.4v-6.4c0-0.7-0.6-1.3-1.3-1.3c-0.7,0-1.3,0.6-1.3,1.3v7.6c0,0.7,0.6,1.3,1.3,1.3h7.6
		c0.7,0,1.3-0.6,1.3-1.3C63,54,62.4,53.5,61.7,53.5L61.7,53.5z M61.7,53.5"></path>
	<path class="st1 TsNDvcIQ_2" d="M35,17.8h22.9c0.7,0,1.3-0.6,1.3-1.3c0-0.7-0.6-1.3-1.3-1.3H35c-0.7,0-1.3,0.6-1.3,1.3
		C33.7,17.3,34.3,17.8,35,17.8L35,17.8z M35,17.8"></path>
	<path class="st1 TsNDvcIQ_3" d="M35,35.6h22.9c0.7,0,1.3-0.6,1.3-1.3c0-0.7-0.6-1.3-1.3-1.3H35c-0.7,0-1.3,0.6-1.3,1.3
		C33.7,35.1,34.3,35.6,35,35.6L35,35.6z M35,35.6"></path>
	<path class="st1 TsNDvcIQ_4" d="M26.8,9.2c-0.5-0.5-1.3-0.4-1.8,0.1l-8,9.3L12.2,15c-0.6-0.4-1.4-0.3-1.8,0.3c-0.4,0.6-0.3,1.4,0.3,1.8
		l5.8,4.4c0.2,0.2,0.5,0.3,0.8,0.3c0.4,0,0.7-0.1,1-0.4L27,11C27.4,10.5,27.4,9.7,26.8,9.2L26.8,9.2z M26.8,9.2"></path>
	<path class="st1 TsNDvcIQ_5" d="M26.8,27c-0.5-0.5-1.3-0.4-1.8,0.1l-8,9.3l-4.9-3.6c-0.6-0.4-1.4-0.3-1.8,0.3c-0.4,0.6-0.3,1.4,0.3,1.8
		l5.8,4.4c0.2,0.2,0.5,0.3,0.8,0.3c0.4,0,0.7-0.2,1-0.4L27,28.8C27.4,28.3,27.4,27.5,26.8,27L26.8,27z M26.8,27"></path>
	<path class="st1 TsNDvcIQ_6" d="M25,46.3l-8,9.3l-4.9-3.6c-0.6-0.4-1.4-0.3-1.8,0.3c-0.4,0.6-0.3,1.4,0.3,1.8l5.8,4.4c0.2,0.2,0.5,0.3,0.8,0.3
		c0.4,0,0.7-0.2,1-0.4L27,47.9c0.5-0.5,0.4-1.3-0.1-1.8C26.3,45.7,25.5,45.7,25,46.3L25,46.3z M25,46.3"></path>
	<path class="st1 TsNDvcIQ_7" d="M53.9,0H16.1C7.6,0,0.6,7,0.6,15.5v37.7c0,8.5,7,15.5,15.5,15.5H35c0.7,0,1.3-0.6,1.3-1.3
		c0-0.7-0.6-1.3-1.3-1.3H16.1c-7.1,0-13-5.8-13-13V15.5c0-7.1,5.8-12.9,13-12.9h37.7c7.1,0,13,5.8,13,12.9v18.9
		c0,0.7,0.6,1.3,1.3,1.3c0.7,0,1.3-0.6,1.3-1.3V15.5C69.4,7,62.4,0,53.9,0L53.9,0z M53.9,0"></path>
</g>
<style data-made-with="vivus-instant">.TsNDvcIQ_0{stroke-dasharray:176 178;stroke-dashoffset:177;animation:TsNDvcIQ_draw 2000ms linear 0ms forwards;}.TsNDvcIQ_1{stroke-dasharray:39 41;stroke-dashoffset:40;animation:TsNDvcIQ_draw 2000ms linear 142ms forwards;}.TsNDvcIQ_2{stroke-dasharray:54 56;stroke-dashoffset:55;animation:TsNDvcIQ_draw 2000ms linear 285ms forwards;}.TsNDvcIQ_3{stroke-dasharray:54 56;stroke-dashoffset:55;animation:TsNDvcIQ_draw 2000ms linear 428ms forwards;}.TsNDvcIQ_4{stroke-dasharray:50 52;stroke-dashoffset:51;animation:TsNDvcIQ_draw 2000ms linear 571ms forwards;}.TsNDvcIQ_5{stroke-dasharray:50 52;stroke-dashoffset:51;animation:TsNDvcIQ_draw 2000ms linear 714ms forwards;}.TsNDvcIQ_6{stroke-dasharray:50 52;stroke-dashoffset:51;animation:TsNDvcIQ_draw 2000ms linear 857ms forwards;}.TsNDvcIQ_7{stroke-dasharray:369 371;stroke-dashoffset:370;animation:TsNDvcIQ_draw 2000ms linear 1000ms forwards;}@keyframes TsNDvcIQ_draw{100%{stroke-dashoffset:0;}}@keyframes TsNDvcIQ_fade{0%{stroke-opacity:1;}94.44444444444444%{stroke-opacity:1;}100%{stroke-opacity:0;}}</style></svg>
