<?xml version="1.0" encoding="utf-8"?>
<!-- Generator: Adobe Illustrator 21.1.0, SVG Export Plug-In . SVG Version: 6.00 Build 0)  -->
<svg version="1.1" id="Слой_1" xmlns="http://www.w3.org/2000/svg" xmlns:xlink="http://www.w3.org/1999/xlink" x="0px" y="0px"
	 width="54px" height="44px" viewBox="0 0 54 44" style="enable-background:new 0 0 54 44;" xml:space="preserve">
<path d="M11,14.8c0.3,3.6,1.7,2,2,3.6c0.5,2.6,2.8,4.5,4.2,5.1c0.8,0.4,1.7,0.6,2.6,0.6v0c0,0,0,0,0,0c0,0,0,0,0,0v0
	c0.9,0,1.8-0.2,2.6-0.6c1.4-0.6,3.7-2.5,4.2-5.1c0.3-1.6,1.7,0,2-3.6c0-1.4-0.8-1.8-0.8-1.8s0.4-2.1,0.5-3.7c0.2-2-1.2-7.2-8.5-7.2
	c0,0-0.1,0-0.1,0c0,0,0,0,0,0v0c0,0,0,0,0,0c0,0,0,0,0,0v0c0,0,0,0,0,0c0,0-0.1,0-0.1,0c-7.3,0-8.7,5.2-8.5,7.2
	c0.2,1.6,0.5,3.7,0.5,3.7S11,13.4,11,14.8L11,14.8z M11,14.8 M36.4,32.3c-3.7-1.9-9-4.2-9.3-4.3c0,0,0,0,0,0
	c-0.1-0.1-0.3-0.1-0.5-0.1c-0.6,0-1.2,0.4-1.4,1c0,0,0,0,0,0c-1,2.3-2.7,6.4-3.8,8.4l-0.3-5.5c0,0,1.6-3.5,1.8-3.8
	c0.4-0.7,0-1.4-0.7-1.4h-4.8c-0.8,0-1.2,0.6-0.7,1.4c0.2,0.3,1.8,3.8,1.8,3.8l-0.3,5.5c-1.1-2-2.8-6.1-3.8-8.4c0,0,0,0,0,0
	c-0.2-0.6-0.7-1-1.4-1c-0.2,0-0.3,0-0.5,0.1c0,0,0,0,0,0c-0.3,0.1-5.6,2.4-9.3,4.3c-1.7,0.8-2.7,1.9-2.7,3V44H39v-8.7
	C39,34.2,38,33.2,36.4,32.3L36.4,32.3z M36.4,32.3 M50.3,3.1C46.2-1,39.6-1,35.5,3.1C31.6,7,31.4,13.3,35,17.4l0.1,0.1
	c-0.4,0.9-1.1,1.9-2.2,2.4c-0.4,0.2-0.3,0.7,0.1,0.8c1.2,0.2,2.9,0,4.4-1.2l0,0c4,2.4,9.2,1.8,12.7-1.6C54.3,13.8,54.3,7.1,50.3,3.1
	z M42,14.9l-4.6-3.7l1.1-1.3l3.3,2.6L47,6l1.4,1.1L42,14.9z"/>
</svg>
