<svg xmlns="http://www.w3.org/2000/svg" width="9.94" height="14" viewBox="0 0 9.94 14">
  <defs>
    <style>
      .cls-1 {
        fill: #fff;
        fill-rule: evenodd;
      }
    </style>
  </defs>
  <path id="Фигура_4" data-name="Фигура 4" class="cls-1" d="M1188.63,2482.48a4.491,4.491,0,0,0-.24-0.56,4.978,4.978,0,0,0-9.47,1.42v0.6c0,0.03.01,0.25,0.02,0.36,0.18,1.39,1.32,2.88,2.16,4.27,0.91,1.49,1.86,2.96,2.79,4.43,0.58-.96,1.16-1.93,1.72-2.86,0.16-.28.33-0.55,0.49-0.81,0.1-.18.3-0.35,0.39-0.51,0.91-1.62,2.37-3.25,2.37-4.85v-0.66a5.2,5.2,0,0,0-.23-0.83h0Zm-4.76,3a1.75,1.75,0,0,1-1.69-1.17,1.63,1.63,0,0,1-.05-0.43v-0.39a1.654,1.654,0,0,1,1.79-1.59,1.789,1.789,0,0,1,1.82,1.79,1.832,1.832,0,0,1-1.87,1.79h0Zm0,0" transform="translate(-1178.94 -2479)"/>
</svg>
