<?xml version="1.0" standalone="no"?>
<!DOCTYPE svg PUBLIC "-//W3C//DTD SVG 20010904//EN"
 "http://www.w3.org/TR/2001/REC-SVG-20010904/DTD/svg10.dtd">
<svg version="1.0" xmlns="http://www.w3.org/2000/svg"
 width="260.000000pt" height="260.000000pt" viewBox="0 0 260.000000 260.000000"
 preserveAspectRatio="xMidYMid meet">
<metadata>
Created by potrace 1.11, written by Peter Selinger 2001-2013
</metadata>
<g transform="translate(0.000000,260.000000) scale(0.100000,-0.100000)"
fill="#000000" stroke="none">
<path d="M1150 2451 c0 -5 -19 -14 -42 -19 -120 -29 -232 -95 -334 -196 -89
-89 -141 -172 -188 -301 -27 -74 -29 -90 -29 -225 -1 -149 8 -196 58 -315 53
-124 181 -269 303 -342 114 -68 207 -95 351 -101 209 -8 346 36 513 164 128
99 242 288 264 437 3 26 10 47 15 47 5 0 9 47 9 105 0 58 -4 105 -9 105 -5 0
-12 19 -16 43 -27 176 -155 368 -320 478 -75 51 -168 93 -227 103 -21 4 -38
11 -38 16 0 6 -63 10 -155 10 -88 0 -155 -4 -155 -9z m289 -71 c146 -31 247
-86 351 -190 64 -64 94 -104 122 -160 54 -110 66 -145 79 -242 33 -238 -73
-488 -269 -635 -170 -128 -379 -172 -575 -122 -131 33 -222 84 -320 178 -83
79 -141 173 -177 282 -26 82 -30 108 -30 209 0 159 30 262 115 390 110 165
279 268 495 303 58 10 120 6 209 -13z"/>
<path d="M1180 2054 c-168 -61 -271 -236 -239 -406 32 -170 183 -298 352 -298
148 0 291 100 341 240 28 77 20 208 -17 280 -38 75 -87 122 -166 162 -55 27
-79 33 -146 35 -55 2 -94 -2 -125 -13z m207 -164 c-4 -14 3 -26 23 -40 71 -50
91 -179 39 -254 -40 -59 -98 -82 -195 -77 -41 1 -117 68 -138 121 -9 22 -20
40 -26 40 -13 0 -13 37 1 45 5 4 20 27 32 53 34 69 84 105 157 110 33 2 63 8
66 13 3 5 14 9 26 9 15 0 19 -5 15 -20z"/>
<path d="M714 1821 c-65 -28 -87 -133 -40 -188 21 -24 31 -28 80 -28 47 0 60
4 83 28 23 23 28 36 28 77 0 42 -5 54 -30 80 -33 33 -85 46 -121 31z m59 -62
c3 -11 15 -23 26 -26 24 -6 29 -33 5 -33 -8 0 -20 -13 -25 -30 -6 -16 -15 -30
-20 -30 -5 0 -15 14 -24 30 -9 17 -22 30 -30 30 -25 0 -17 27 10 34 16 4 25
13 25 26 0 26 26 26 33 -1z"/>
<path d="M1790 1811 c-42 -22 -60 -53 -60 -104 0 -54 52 -107 105 -107 71 0
114 41 115 110 0 54 -20 87 -66 106 -43 18 -52 18 -94 -5z m72 -53 c2 -15 11
-24 26 -26 28 -4 29 -30 0 -34 -14 -2 -24 -12 -28 -28 -7 -30 -34 -33 -38 -5
-2 11 -12 25 -24 30 -30 14 -35 35 -9 35 13 0 26 10 33 25 14 31 36 32 40 3z"/>
<path d="M1015 938 c-3 -7 -4 -95 -3 -193 l3 -180 270 0 270 0 3 184 2 183
-27 -5 c-164 -35 -219 -40 -308 -27 -81 11 -141 25 -187 45 -11 4 -20 2 -23
-7z"/>
<path d="M622 518 c-10 -14 -8 -110 3 -127 4 -7 95 -11 265 -11 296 0 284 -4
278 88 l-3 47 -95 6 c-179 12 -437 10 -448 -3z"/>
<path d="M1498 523 l-88 -4 0 -54 c0 -92 -21 -85 270 -85 296 0 290 -2 290 80
0 39 -4 52 -19 60 -19 9 -238 11 -453 3z"/>
<path d="M1014 337 c-3 -8 -4 -49 -2 -93 l3 -79 273 -3 c214 -2 272 0 273 10
3 47 -1 159 -6 168 -4 6 -102 10 -271 10 -212 0 -266 -3 -270 -13z"/>
</g>
</svg>
