<?xml version="1.0" encoding="utf-8"?>
<!-- Generator: Adobe Illustrator 21.1.0, SVG Export Plug-In . SVG Version: 6.00 Build 0)  -->
<svg version="1.1" id="Слой_1" xmlns="http://www.w3.org/2000/svg" xmlns:xlink="http://www.w3.org/1999/xlink" x="0px" y="0px"
	 width="71px" height="71px" viewBox="0 0 71 71" style="enable-background:new 0 0 71 71;" xml:space="preserve">
<style type="text/css">
	.st0{clip-path:url(#SVGID_2_);fill:#00D5A1;}
	.st1{clip-path:url(#SVGID_2_);fill:#5165FF;}
	.st2{fill:#5165FF;}
	.st3{fill:#00D5A1;}
</style>
<g>
	<g>
		<defs>
			<rect id="SVGID_1_" x="0.1" width="70.8" height="71"/>
		</defs>
		<clipPath id="SVGID_2_">
			<use xlink:href="#SVGID_1_"  style="overflow:visible;"/>
		</clipPath>
		<path class="st0" d="M55.6,36.8c0.8,0,1.4-0.6,1.4-1.4c0-0.8-0.6-1.4-1.4-1.4c-0.8,0-1.4,0.6-1.4,1.4
			C54.3,36.2,54.9,36.8,55.6,36.8L55.6,36.8z M55.6,36.8"/>
		<path class="st1" d="M70,35.3c1.4-2.3,1-6-0.8-7.8l-2.7-2.7c-0.6-0.6-0.9-1.4-0.9-2.3l0.3-3.8c0.2-2.7-1.5-5-4-5.8l-3.6-1.1
			c-0.8-0.2-1.5-0.8-1.8-1.6L55,6.8c-1-2.4-3.7-3.8-6.3-3.3l-3.6,0.7c-0.9,0.2-2.6-0.1-3.2-0.6L39,1.3c-2.1-1.7-5-1.7-7.1,0L29,3.6
			c-0.6,0.5-2.3,0.8-3.2,0.6l-3.6-0.7C19.6,3,17,4.4,15.9,6.8l-1.5,3.4c-0.3,0.8-1,1.4-1.8,1.6l-3.6,1.1c-2.6,0.8-4.2,3.2-4,5.8
			l0.3,3.8c0.1,0.8-0.3,1.7-0.9,2.3l-2.7,2.7c-1.8,1.8-2.2,5.5-0.9,7.8l2,4c0,0,0,0.1,0.1,0.1c0.4,0.7,0.5,1.6,0.3,2.4L2,45.4
			c-0.8,2.5,0.2,5.2,2.5,6.6l3.2,1.9c0.7,0.4,1.2,1.2,1.4,2l0.6,3.7c0.4,2.6,2.6,4.6,5.3,4.7l3.7,0.2c0.9,0,1.6,0.5,2.2,1.1l2.3,3
			c1.1,1.4,3.1,2.2,5.1,2.2c0.9,0,1.8-0.2,2.6-0.5l3.3-1.6c0.8-0.4,1.7-0.4,2.4,0l3.3,1.6c2.5,1.2,6.2,0.3,7.7-1.7l2.3-3
			c0.5-0.7,1.3-1.1,2.2-1.1l3.7-0.2c2.7-0.1,4.8-2.1,5.3-4.7l0.6-3.7c0.1-0.8,0.6-1.6,1.4-2l3.2-1.9c2.3-1.4,3.3-4.1,2.5-6.6
			l-1.2-3.6c-0.3-0.9-0.1-2.6,0.3-3.2L70,35.3z M65.7,37.1c-0.9,1.5-1,4.1-0.6,5.5l1.2,3.6c0.4,1.3-0.1,2.7-1.3,3.4l-3.2,1.9
			c-1.4,0.8-2.4,2.3-2.7,3.9l-0.6,3.7c-0.2,1.3-1.3,2.3-2.7,2.4L52,61.7c-1.7,0.1-3.2,0.9-4.2,2.2l-2.3,3c-0.8,1-3.1,1.5-4.4,0.9
			l-3.3-1.6c-1.5-0.7-3.3-0.7-4.8,0l-3.3,1.6c-1.3,0.6-3.6,0.2-4.4-0.9l-2.3-3c-1-1.3-2.6-2.1-4.2-2.2l-3.7-0.2
			c-1.4-0.1-2.5-1.1-2.7-2.4l-0.6-3.7c-0.3-1.6-1.3-3.1-2.7-3.9l-3.2-1.9c-1.2-0.7-1.7-2.1-1.3-3.4l1.2-3.6C6.3,41,6.1,39.4,5.3,38
			l-2-4c0,0,0-0.1-0.1-0.1c-0.7-1.2-0.5-3.5,0.4-4.4l2.7-2.7c1.2-1.2,1.8-2.8,1.7-4.4l-0.3-3.8c-0.1-1.4,0.7-2.6,2.1-3l3.6-1.1
			c1.6-0.5,2.9-1.6,3.6-3.2l1.5-3.4C19,6.7,20.4,6,21.7,6.2l3.6,0.7c1.6,0.3,4.1,0,5.5-1.2l2.9-2.3c1.1-0.8,2.6-0.8,3.6,0l2.9,2.3
			c1.4,1.1,3.9,1.5,5.5,1.1l3.6-0.7c1.3-0.3,2.7,0.5,3.2,1.7l1.5,3.4c0.7,1.5,2,2.7,3.6,3.2l3.6,1.1c1.3,0.4,2.1,1.6,2,3l-0.3,3.8
			c-0.1,1.7,0.5,3.3,1.7,4.4l2.7,2.7c0.9,0.9,1.2,3.2,0.4,4.4L65.7,37.1z M65.7,37.1"/>
	</g>
	<path class="st2" d="M35.5,8.3C21,8.3,8.4,21.8,8.4,36.3c0,14.7,12.8,26.3,27.1,26.3c14.5,0,27.1-12.6,27.1-27.1
		C62.6,21,50,8.3,35.5,8.3L35.5,8.3z M35.5,59.8c-13.2,0-24.3-10.8-24.3-23.5c0-13.2,11.6-25.2,24.3-25.2c13,0,24.3,11.4,24.3,24.3
		C59.8,48.4,48.4,59.8,35.5,59.8L35.5,59.8z M35.5,59.8"/>
	<path class="st3" d="M35.5,54.2c-0.8,0-1.4,0.6-1.4,1.4c0,0.8,0.6,1.4,1.4,1.4c9.3,0,18.2-7,20.7-15.7c0.2-0.7-0.2-1.5-0.9-1.7
		c-0.7-0.2-1.5,0.2-1.7,0.9C51.3,48.2,43.3,54.2,35.5,54.2L35.5,54.2z M35.5,54.2"/>
	<path class="st3" d="M29.9,34.1c2.3,0,4.1-1.9,4.1-4.1c0-2.3-1.9-4.1-4.1-4.1c-2.3,0-4.1,1.9-4.1,4.1
		C25.8,32.2,27.6,34.1,29.9,34.1L29.9,34.1z M29.9,28.5c0.8,0,1.4,0.6,1.4,1.4c0,0.8-0.6,1.4-1.4,1.4s-1.4-0.6-1.4-1.4
		C28.5,29.1,29.2,28.5,29.9,28.5L29.9,28.5z M29.9,28.5"/>
	<path class="st3" d="M41,36.8c-2.3,0-4.1,1.9-4.1,4.1c0,2.3,1.9,4.1,4.1,4.1c2.3,0,4.1-1.9,4.1-4.1C45.1,38.7,43.3,36.8,41,36.8
		L41,36.8z M41,42.4c-0.8,0-1.4-0.6-1.4-1.4c0-0.8,0.6-1.4,1.4-1.4s1.4,0.6,1.4,1.4C42.4,41.7,41.8,42.4,41,42.4L41,42.4z M41,42.4"
		/>
	<path class="st3" d="M44.7,26.2c-0.5-0.5-1.4-0.5-2,0L26.2,42.8c-0.5,0.5-0.5,1.4,0,2c0.5,0.5,1.4,0.5,2,0l16.6-16.6
		C45.3,27.6,45.3,26.7,44.7,26.2L44.7,26.2z M44.7,26.2"/>
</g>
</svg>
