<?xml version="1.0" encoding="utf-8"?>
<!-- Generator: Adobe Illustrator 21.1.0, SVG Export Plug-In . SVG Version: 6.00 Build 0)  -->
<svg version="1.1" id="Слой_1" xmlns="http://www.w3.org/2000/svg" xmlns:xlink="http://www.w3.org/1999/xlink" x="0px" y="0px"
	 width="53px" height="70px" viewBox="0 0 53 70" style="enable-background:new 0 0 53 70;" xml:space="preserve">
<style type="text/css">
	.st0{fill:#00D5A1;}
	.st1{clip-path:url(#SVGID_2_);fill:#00D5A1;}
	.st2{clip-path:url(#SVGID_2_);fill:#5165FF;}
</style>
<g>
	<path class="st0" d="M35.4,8.8C27.7,5,18.5,6.4,12.4,12.5c-7.1,7.1-7.8,18.3-1.6,26.2c0.2,0.3,0.5,0.4,0.9,0.4
		c0.2,0,0.5-0.1,0.7-0.2c0.5-0.4,0.6-1.1,0.2-1.5c-5.4-7-4.8-17,1.5-23.3c5.4-5.4,13.6-6.7,20.4-3.3c0.5,0.3,1.2,0.1,1.5-0.5
		C36.1,9.8,35.9,9.1,35.4,8.8L35.4,8.8z M35.4,8.8"/>
	<path class="st0" d="M44.1,17.6c-0.3-0.5-0.9-0.8-1.5-0.5c-0.5,0.3-0.8,0.9-0.5,1.5c3.4,6.8,2.1,15-3.3,20.4
		c-6.3,6.3-16.3,6.9-23.3,1.5c-0.5-0.4-1.2-0.3-1.5,0.2c-0.4,0.5-0.3,1.2,0.2,1.5c3.6,2.8,7.9,4.2,12.1,4.2c5.1,0,10.2-2,14-5.8
		C46.5,34.5,48,25.2,44.1,17.6L44.1,17.6z M44.1,17.6"/>
	<g>
		<defs>
			<rect id="SVGID_1_" y="0.1" width="53" height="69.8"/>
		</defs>
		<clipPath id="SVGID_2_">
			<use xlink:href="#SVGID_1_"  style="overflow:visible;"/>
		</clipPath>
		<path class="st1" d="M41.3,13.4c-0.3-0.3-0.6-0.6-0.8-0.9c-0.3-0.3-0.6-0.6-0.9-0.8c-0.5-0.4-1.1-0.4-1.5,0.1
			c-0.4,0.5-0.4,1.1,0.1,1.5c0.3,0.2,0.5,0.5,0.8,0.8c0.3,0.3,0.5,0.5,0.8,0.8c0.2,0.2,0.5,0.4,0.8,0.4c0.3,0,0.5-0.1,0.7-0.3
			C41.6,14.6,41.7,13.9,41.3,13.4L41.3,13.4z M41.3,13.4"/>
		<path class="st2" d="M52.3,28.5c0.7-1.2,0.7-2.7,0-3.9l-1.4-2.4c-0.2-0.3-0.3-0.7-0.2-1l0.4-2.7c0.2-1.4-0.4-2.8-1.5-3.6l-2.2-1.6
			c-0.3-0.2-0.5-0.5-0.6-0.9l-0.7-2.7c-0.3-1.4-1.4-2.4-2.8-2.8l-2.7-0.7c-0.4-0.1-0.7-0.3-0.9-0.6l-1.6-2.2
			c-0.8-1.1-2.2-1.7-3.6-1.5l-2.7,0.4c-0.4,0.1-0.7,0-1-0.2l-2.4-1.4c-1.2-0.7-2.7-0.7-3.9,0l-2.4,1.4c-0.3,0.2-0.7,0.3-1,0.2
			l-2.7-0.4c-1.4-0.2-2.8,0.4-3.6,1.5l-1.6,2.2c-0.2,0.3-0.5,0.5-0.9,0.6L9.6,6.9C8.2,7.2,7.2,8.3,6.8,9.6l-0.7,2.7
			c-0.1,0.4-0.3,0.7-0.6,0.9l-2.2,1.6c-1.1,0.8-1.7,2.2-1.5,3.6l0.4,2.7c0.1,0.4,0,0.7-0.2,1l-1.4,2.4c-0.7,1.2-0.7,2.7,0,3.9
			l1.4,2.4c0.2,0.3,0.3,0.7,0.2,1l-0.4,2.7c-0.2,1.4,0.4,2.8,1.5,3.6l2.2,1.6c0.3,0.2,0.5,0.5,0.6,0.9l0.7,2.7
			c0.3,1.4,1.4,2.4,2.8,2.8l1.1,0.3l-7.6,17c-0.2,0.4-0.1,0.8,0.1,1.1c0.2,0.3,0.6,0.5,1,0.4l6.1-0.7l3.5,5.1
			c0.2,0.3,0.5,0.5,0.9,0.5c0,0,0.1,0,0.1,0c0.4,0,0.7-0.3,0.9-0.6l7.8-17.3l1,0.6c0.6,0.4,1.3,0.5,1.9,0.5c0.7,0,1.3-0.2,1.9-0.5
			l1-0.6l7.8,17.3c0.2,0.4,0.5,0.6,0.9,0.6c0,0,0.1,0,0.1,0c0.4,0,0.7-0.2,0.9-0.5l3.5-5.1l6.1,0.7c0.4,0,0.8-0.1,1-0.4
			c0.2-0.3,0.3-0.7,0.1-1.1l-7.6-17l1.1-0.3c1.4-0.3,2.4-1.4,2.8-2.8l0.7-2.7c0.1-0.4,0.3-0.7,0.6-0.9l2.2-1.6
			c1.1-0.8,1.7-2.2,1.5-3.6l-0.4-2.7c-0.1-0.4,0-0.7,0.2-1L52.3,28.5z M14.6,66.4l-2.8-4c-0.2-0.3-0.6-0.5-1-0.5l-4.8,0.6l6.9-15.5
			c0.1,0.1,0.2,0.2,0.3,0.3l1.6,2.2c0.2,0.2,0.3,0.4,0.5,0.6l-3.6,8.1c-0.2,0.6,0,1.2,0.6,1.4c0.1,0.1,0.3,0.1,0.4,0.1
			c0.4,0,0.8-0.2,1-0.6l3.6-8.1c0.4,0,0.7,0,1.1,0l2.7-0.4c0.2,0,0.3,0,0.5,0L14.6,66.4z M47.1,62.5L42.2,62c-0.4,0-0.8,0.1-1,0.5
			l-2.8,4l-7-15.7c0.1,0,0.3,0,0.4,0l2.7,0.4c0.4,0.1,0.8,0.1,1.1,0l3.6,8.1c0.2,0.4,0.6,0.6,1,0.6c0.1,0,0.3,0,0.4-0.1
			c0.6-0.2,0.8-0.9,0.6-1.4l-3.7-8.2c0.2-0.2,0.3-0.3,0.5-0.5l1.6-2.2c0.1-0.1,0.2-0.3,0.4-0.4L47.1,62.5z M50.4,27.3L49,29.7
			c-0.5,0.8-0.6,1.7-0.5,2.5l0.4,2.7c0.1,0.6-0.1,1.1-0.6,1.5l-2.2,1.6c-0.7,0.5-1.2,1.3-1.4,2.1L44,42.9c-0.1,0.6-0.6,1-1.1,1.1
			l-2.7,0.7c-0.9,0.2-1.6,0.7-2.1,1.4l-1.6,2.2c-0.3,0.5-0.9,0.7-1.5,0.6l-2.7-0.4c-0.9-0.1-1.8,0-2.5,0.5l-2.4,1.4
			c-0.5,0.3-1.1,0.3-1.6,0l-2.4-1.4c-0.6-0.4-1.3-0.5-1.9-0.5c-0.2,0-0.4,0-0.6,0L18,49c-0.6,0.1-1.1-0.1-1.5-0.6l-1.6-2.2
			c-0.5-0.7-1.3-1.2-2.1-1.4L10.1,44c-0.6-0.1-1-0.6-1.1-1.1l-0.7-2.7c-0.2-0.9-0.7-1.6-1.4-2.1l-2.2-1.6C4.2,36.1,3.9,35.5,4,35
			l0.4-2.7c0.1-0.9,0-1.8-0.5-2.5l-1.4-2.4c-0.3-0.5-0.3-1.1,0-1.6L4,23.4c0.5-0.8,0.6-1.7,0.5-2.5L4,18.1c-0.1-0.6,0.1-1.1,0.6-1.5
			L6.9,15c0.7-0.5,1.2-1.3,1.4-2.1L9,10.2c0.1-0.6,0.6-1,1.1-1.1l2.7-0.7c0.9-0.2,1.6-0.7,2.1-1.4l1.6-2.2C16.9,4.2,17.5,4,18,4.1
			l2.7,0.4c0.9,0.1,1.8,0,2.5-0.5l2.4-1.4c0.5-0.3,1.1-0.3,1.6,0L29.6,4c0.8,0.5,1.7,0.6,2.5,0.5l2.7-0.4C35.5,4,36,4.2,36.4,4.7
			L38,6.9c0.5,0.7,1.3,1.2,2.1,1.4L42.8,9c0.6,0.1,1,0.6,1.1,1.1l0.7,2.7c0.2,0.9,0.7,1.6,1.4,2.1l2.2,1.6c0.5,0.3,0.7,0.9,0.6,1.5
			l-0.4,2.7c-0.1,0.9,0,1.8,0.5,2.5l1.4,2.4C50.7,26.2,50.7,26.8,50.4,27.3L50.4,27.3z M50.4,27.3"/>
	</g>
	<path class="st0" d="M39.3,23.1c-0.2-0.7-0.9-1.3-1.7-1.4L31.1,21l-2.8-6c-0.3-0.7-1-1.2-1.8-1.2c-0.8,0-1.5,0.4-1.8,1.2l-2.8,6
		l-6.6,0.8c-0.8,0.1-1.4,0.6-1.7,1.4c-0.2,0.7,0,1.5,0.5,2.1l4.9,4.5l-1.3,6.5c-0.2,0.8,0.1,1.5,0.8,2c0.3,0.3,0.8,0.4,1.2,0.4
		c0.3,0,0.7-0.1,1-0.3l5.8-3.2l5.8,3.2c0.7,0.4,1.5,0.3,2.1-0.1c0.6-0.5,0.9-1.2,0.8-2l-1.3-6.5l4.9-4.5
		C39.3,24.7,39.5,23.9,39.3,23.1L39.3,23.1z M31.9,28.5c-0.3,0.3-0.4,0.6-0.3,1l1.3,6.7L27,32.9c-0.2-0.1-0.4-0.1-0.5-0.1
		c-0.2,0-0.4,0-0.5,0.1L20,36.2l1.3-6.7c0.1-0.4-0.1-0.8-0.3-1l-5-4.6l6.8-0.8c0.4,0,0.7-0.3,0.9-0.6l2.8-6.2l2.8,6.2
		c0.2,0.3,0.5,0.6,0.9,0.6l6.8,0.8L31.9,28.5z M31.9,28.5"/>
</g>
</svg>
