<svg xmlns="http://www.w3.org/2000/svg" width="11.125" height="11.03" viewBox="0 0 11.125 11.03">
  <defs>
    <style>
      .cls-1 {
        fill: #fff;
        fill-rule: evenodd;
      }
    </style>
  </defs>
  <path id="Фигура_3" data-name="Фигура 3" class="cls-1" d="M898.587,2465.8l-1.717-1.71a0.9,0.9,0,0,0-1.263.02l-0.865.87a1.977,1.977,0,0,1-.171-0.1,8.429,8.429,0,0,1-2.081-1.5,8.589,8.589,0,0,1-1.508-2.08c-0.032-.06-0.063-0.11-0.094-0.16l0.581-.58,0.286-.29a0.892,0.892,0,0,0,.023-1.26l-1.718-1.71a0.9,0.9,0,0,0-1.262.02l-0.484.49,0.013,0.01a2.986,2.986,0,0,0-.4.7,2.933,2.933,0,0,0-.177.72c-0.227,1.87.632,3.58,2.964,5.91,3.222,3.21,5.82,2.97,5.932,2.96a3.037,3.037,0,0,0,.715-0.18,2.583,2.583,0,0,0,.7-0.4l0.011,0.01,0.49-.48a0.892,0.892,0,0,0,.023-1.26h0Zm0,0" transform="translate(-887.719 -2457.06)"/>
</svg>
