<svg xmlns="http://www.w3.org/2000/svg" width="19.56" height="20.344" viewBox="0 0 19.56 20.344">
  <defs>
    <style>
      .cls-1 {
        fill: #5165ff;
        fill-rule: evenodd;
      }
    </style>
  </defs>
  <path id="Фигура_2" data-name="Фигура 2" class="cls-1" d="M1102.9,45.223l-3.02-3.148a1.53,1.53,0,0,0-2.22.043l-1.52,1.586c-0.09-.055-0.19-0.113-0.3-0.174a15.089,15.089,0,0,1-3.65-2.759,16.064,16.064,0,0,1-2.66-3.822c-0.05-.106-0.11-0.208-0.16-0.306l1.02-1.063,0.5-.524a1.683,1.683,0,0,0,.04-2.314l-3.01-3.149a1.528,1.528,0,0,0-2.22.044l-0.85.892,0.02,0.024a5.124,5.124,0,0,0-.7,1.29,5.384,5.384,0,0,0-.31,1.308c-0.4,3.446,1.11,6.6,5.21,10.869,5.66,5.907,10.22,5.461,10.42,5.439a4.956,4.956,0,0,0,1.26-.329,4.765,4.765,0,0,0,1.23-.728l0.02,0.017,0.86-.88a1.694,1.694,0,0,0,.04-2.315h0Zm0,0" transform="translate(-1083.78 -29.125)"/>
</svg>
