<svg xmlns="http://www.w3.org/2000/svg" width="22" height="32" viewBox="0 0 22 32">
  <defs>
    <style>
      .cls-1 {
        fill: #5165ff;
        fill-rule: evenodd;
      }
    </style>
  </defs>
  <path id="Фигура_1" data-name="Фигура 1" class="cls-1" d="M800.48,506.965a10.05,10.05,0,0,0-.516-1.281A10.938,10.938,0,0,0,779,508.927v1.365c0,0.057.019,0.569,0.047,0.826,0.4,3.184,2.908,6.57,4.781,9.755,2.015,3.413,4.107,6.771,6.179,10.127,1.279-2.191,2.552-4.41,3.8-6.544,0.341-.624.737-1.249,1.077-1.847,0.226-.4.661-0.8,0.859-1.166,2.015-3.7,5.261-7.424,5.261-11.094v-1.507a11.341,11.341,0,0,0-.52-1.877h0Zm-10.543,6.855a3.9,3.9,0,0,1-3.737-2.674,3.7,3.7,0,0,1-.106-1v-0.882a3.7,3.7,0,0,1,3.966-3.64,4.025,4.025,0,0,1,4.028,4.1,4.128,4.128,0,0,1-4.151,4.1h0Zm0,0" transform="translate(-779 -499)"/>
</svg>
