<?xml version="1.0" encoding="utf-8"?>
<!-- Generator: Adobe Illustrator 21.1.0, SVG Export Plug-In . SVG Version: 6.00 Build 0)  -->
<svg version="1.1" id="Слой_1" xmlns="http://www.w3.org/2000/svg" xmlns:xlink="http://www.w3.org/1999/xlink" x="0px" y="0px"
	 width="139px" height="40px" viewBox="0 0 139 40" style="enable-background:new 0 0 139 40;" xml:space="preserve">
<style type="text/css">
	.st0{fill:#FFFFFF;}
</style>
<g>
	<g>
		<path class="st0" d="M58.1,10.6c-1,0-1.9,0.9-1.9,1.9c0,1,0.9,1.9,1.9,1.9s1.9-0.9,1.9-1.9C60,11.5,59.2,10.6,58.1,10.6z
			 M59.3,12.8h-0.9v0.9h-0.6v-0.9h-0.9v-0.6h0.9v-0.9h0.6v0.9h0.9V12.8z"/>
		<path class="st0" d="M40.1,10.6c-1,0-1.9,0.9-1.9,1.9c0,1,0.9,1.9,1.9,1.9c1,0,1.9-0.9,1.9-1.9C42,11.5,41.1,10.6,40.1,10.6z
			 M41.3,12.8h-0.9v0.9h-0.6v-0.9h-0.9v-0.6h0.9v-0.9h0.6v0.9h0.9V12.8z"/>
		<path class="st0" d="M49.1,6.6c-3.3,0-6,2.7-6,6c0,3.3,2.7,6,6,6c3.3,0,6-2.7,6-6C55,9.2,52.4,6.6,49.1,6.6z M49.1,15.8
			c-1.6,0-3-1.3-3.1-2.9h-0.7v-0.6h0.7c0.2-1.6,1.5-2.9,3.1-2.9c0.3,0,0.5,0,0.8,0.1l0.4-0.7l0.5,0.3l-0.3,0.6
			c1.1,0.5,1.8,1.6,1.8,2.8C52.2,14.4,50.8,15.8,49.1,15.8z"/>
		<g>
			<path class="st0" d="M44.3,25.1v6.5h9.2v-6.3c-1.4,0.5-2.9,0.8-4.3,0.8C47.5,26.1,45.8,25.7,44.3,25.1z"/>
			<path class="st0" d="M61.8,12.7c0-6.9-5.6-12.6-12.6-12.6c-6.9,0-12.6,5.6-12.6,12.6c0,5.2,3.2,9.6,7.6,11.6c1.5,0.6,3.2,1,4.9,1
				c1.5,0,3-0.3,4.3-0.8l0.1,0C58.4,22.6,61.8,18.1,61.8,12.7z M53.6,23.3c-1.3,0.5-2.9,0.9-4.4,0.9c-1.8,0-3.4-0.4-4.9-1.1
				c-3.9-1.9-6.6-5.8-6.6-10.4c0-6.3,5.2-11.5,11.5-11.5s11.5,5.2,11.5,11.5C60.8,17.5,57.8,21.6,53.6,23.3z"/>
		</g>
		<rect x="37.7" y="32.2" class="st0" width="9.2" height="2.3"/>
		<rect x="51" y="32.2" class="st0" width="9.2" height="2.3"/>
		<rect x="44.3" y="35.1" class="st0" width="9.2" height="3.2"/>
	</g>
	<g>
		<path class="st0" d="M10.7,12.2c0.9,0.4,1.6,1,2.1,1.8c0.5,0.8,0.7,1.7,0.7,2.7c0,1-0.2,2-0.7,2.8s-1.2,1.5-2.1,1.9
			c-0.9,0.5-1.9,0.7-3.1,0.7H1.2c-0.3,0-0.6-0.1-0.9-0.3C0.1,21.5,0,21.3,0,20.9V5.3C0,5,0.1,4.7,0.3,4.5c0.2-0.2,0.5-0.3,0.9-0.3
			H11c0.3,0,0.6,0.1,0.8,0.3c0.2,0.2,0.3,0.5,0.3,0.8c0,0.3-0.1,0.6-0.3,0.8c-0.2,0.2-0.5,0.3-0.8,0.3H2.4v5.2h5.3
			C8.8,11.5,9.8,11.7,10.7,12.2z M10.3,19.1c0.7-0.6,1-1.4,1-2.4c0-1-0.3-1.8-1-2.3c-0.7-0.5-1.5-0.8-2.6-0.8H2.4v6.3h5.3
			C8.7,19.9,9.6,19.6,10.3,19.1z"/>
		<path class="st0" d="M30.7,21c0,0.3-0.1,0.6-0.3,0.8c-0.2,0.2-0.5,0.3-0.8,0.3c-0.2,0-0.4-0.1-0.7-0.2c-0.2-0.1-0.4-0.3-0.4-0.5
			L23.1,8.1l-5.5,13.3c-0.1,0.2-0.3,0.4-0.5,0.5c-0.2,0.1-0.4,0.2-0.6,0.2c-0.3,0-0.6-0.1-0.8-0.4c-0.2-0.2-0.3-0.5-0.3-0.8
			c0-0.2,0-0.3,0.1-0.5l6.5-15.5c0.2-0.5,0.6-0.8,1.1-0.8c0.6,0,0.9,0.3,1.1,0.8l6.5,15.5C30.7,20.6,30.7,20.8,30.7,21z"/>
	</g>
	<g>
		<path class="st0" d="M81.6,21.1c0,0.3-0.1,0.5-0.3,0.8c-0.2,0.2-0.5,0.3-0.8,0.3c-0.2,0-0.4,0-0.5-0.1c-0.2-0.1-0.3-0.2-0.4-0.3
			l-6.6-7.7h-2.5v6.9c0,0.3-0.1,0.6-0.3,0.9s-0.5,0.3-0.9,0.3c-0.3,0-0.6-0.1-0.9-0.3c-0.2-0.2-0.3-0.5-0.3-0.9V5.3
			c0-0.4,0.1-0.6,0.3-0.9c0.2-0.2,0.5-0.3,0.9-0.3c0.4,0,0.6,0.1,0.9,0.3c0.2,0.2,0.3,0.5,0.3,0.9v6.6h2.4L79,4.5
			c0.2-0.3,0.5-0.4,0.9-0.4c0.3,0,0.6,0.1,0.8,0.4C80.9,4.7,81,4.9,81,5.2c0,0.3-0.1,0.5-0.3,0.8l-5.8,6.8l6.4,7.5
			C81.5,20.5,81.6,20.8,81.6,21.1z"/>
	</g>
	<g>
		<path class="st0" d="M77.4,33.2c0.6,0.6,0.8,1.4,0.8,2.3c0,0.8-0.2,1.5-0.7,2.2c-0.4,0.7-1.1,1.2-1.8,1.6
			c-0.8,0.4-1.6,0.6-2.6,0.6c-1.1,0-2.1-0.2-3-0.6c-1-0.4-1.6-0.9-1.9-1.6c0-0.2,0-0.4,0-0.5c0-0.3,0.1-0.6,0.3-0.7
			c0.2-0.1,0.3-0.1,0.5-0.1c0.3,0,0.5,0.1,0.7,0.4c0.3,0.4,0.8,0.8,1.4,1c0.6,0.3,1.3,0.4,2.1,0.4c0.6,0,1.2-0.1,1.7-0.3
			c0.5-0.2,0.9-0.6,1.2-1c0.3-0.4,0.4-0.9,0.4-1.4c0-0.7-0.3-1.3-0.8-1.8c-0.5-0.5-1.2-0.7-2-0.7h-1.2c-0.2,0-0.4-0.1-0.6-0.2
			c-0.1-0.2-0.2-0.4-0.2-0.6c0-0.3,0.1-0.5,0.2-0.6c0.1-0.2,0.3-0.2,0.6-0.2h0.9c0.7,0,1.2-0.2,1.6-0.6c0.4-0.4,0.7-1,0.7-1.6
			c0-0.7-0.2-1.2-0.7-1.6c-0.5-0.4-1.2-0.5-2-0.5c-1.3,0-2.3,0.5-3,1.4c-0.3,0.4-0.6,0.6-0.9,0.6c-0.1,0-0.3,0-0.4-0.1
			c-0.1-0.1-0.2-0.2-0.3-0.3c-0.1-0.1-0.1-0.3-0.1-0.4c0-0.1,0-0.3,0.1-0.4c0.5-0.7,1.1-1.3,1.9-1.7c0.8-0.4,1.7-0.6,2.7-0.6
			c0.9,0,1.7,0.2,2.4,0.5c0.7,0.3,1.2,0.8,1.6,1.3c0.4,0.6,0.6,1.2,0.6,1.8c0,0.7-0.2,1.3-0.6,1.9c-0.4,0.5-0.9,1-1.5,1.2
			C76.2,32.2,76.8,32.6,77.4,33.2z"/>
		<path class="st0" d="M91.3,38.8c0,0.3-0.1,0.5-0.3,0.7c-0.2,0.2-0.4,0.3-0.7,0.3c-0.2,0-0.4-0.1-0.5-0.2c-0.2-0.1-0.3-0.2-0.4-0.4
			l-1-2.6h-6.6l-1,2.6c-0.1,0.2-0.2,0.3-0.4,0.4c-0.2,0.1-0.3,0.2-0.5,0.2c-0.3,0-0.5-0.1-0.7-0.3C79.1,39.2,79,39,79,38.8
			c0-0.1,0-0.3,0.1-0.4L84.2,26c0.2-0.4,0.5-0.6,0.9-0.6c0.4,0,0.7,0.2,0.9,0.6l5.2,12.3C91.3,38.5,91.3,38.7,91.3,38.8z M87.8,35
			l-2.6-6.5L82.5,35H87.8z"/>
		<path class="st0" d="M107.4,25.7c0.2,0.2,0.3,0.4,0.3,0.7v12.4c0,0.3-0.1,0.5-0.3,0.7c-0.2,0.2-0.4,0.3-0.7,0.3
			c-0.3,0-0.5-0.1-0.7-0.3c-0.2-0.2-0.3-0.4-0.3-0.7v-9.1l-4.4,9c-0.2,0.3-0.5,0.5-0.8,0.5c-0.4,0-0.7-0.2-0.9-0.6l-4.4-8.8v8.9
			c0,0.3-0.1,0.5-0.3,0.7c-0.2,0.2-0.4,0.3-0.7,0.3s-0.5-0.1-0.7-0.3c-0.2-0.2-0.3-0.4-0.3-0.7V26.4c0-0.3,0.1-0.5,0.3-0.7
			c0.2-0.2,0.4-0.3,0.7-0.3c0.4,0,0.6,0.2,0.8,0.5l5.4,10.9l5.3-10.9c0.2-0.3,0.5-0.5,0.8-0.5C107,25.4,107.2,25.5,107.4,25.7z"/>
		<path class="st0" d="M121.7,26.2c1.1,0.6,2,1.5,2.6,2.6s0.9,2.4,0.9,3.8c0,1.4-0.3,2.7-0.9,3.8s-1.5,2-2.6,2.6
			c-1.1,0.6-2.4,0.9-3.8,0.9c-1.4,0-2.7-0.3-3.8-0.9c-1.1-0.6-2-1.5-2.6-2.6c-0.6-1.1-0.9-2.4-0.9-3.8c0-1.4,0.3-2.7,0.9-3.8
			c0.6-1.1,1.5-2,2.6-2.6c1.1-0.6,2.4-0.9,3.8-0.9C119.4,25.2,120.6,25.5,121.7,26.2z M115.2,27.7c-0.8,0.5-1.5,1.2-1.9,2
			c-0.5,0.9-0.7,1.8-0.7,2.9c0,1,0.2,2,0.7,2.9c0.5,0.9,1.1,1.5,1.9,2c0.8,0.5,1.8,0.7,2.8,0.7s2-0.2,2.8-0.7c0.8-0.5,1.5-1.2,1.9-2
			c0.5-0.9,0.7-1.8,0.7-2.9c0-1-0.2-2-0.7-2.9c-0.5-0.9-1.1-1.5-1.9-2c-0.8-0.5-1.8-0.7-2.8-0.7S116,27.2,115.2,27.7z"/>
		<path class="st0" d="M139,38.9c0,0.2-0.1,0.4-0.3,0.6c-0.2,0.2-0.4,0.3-0.7,0.3c-0.1,0-0.3,0-0.4-0.1c-0.1-0.1-0.2-0.1-0.3-0.2
			l-5.3-6.1h-2v5.5c0,0.3-0.1,0.5-0.3,0.7c-0.2,0.2-0.4,0.3-0.7,0.3c-0.3,0-0.5-0.1-0.7-0.3c-0.2-0.2-0.3-0.4-0.3-0.7V26.4
			c0-0.3,0.1-0.5,0.3-0.7c0.2-0.2,0.4-0.3,0.7-0.3c0.3,0,0.5,0.1,0.7,0.3c0.2,0.2,0.3,0.4,0.3,0.7v5.3h1.9l4.9-5.9
			c0.2-0.2,0.4-0.3,0.7-0.3c0.3,0,0.5,0.1,0.7,0.3c0.2,0.2,0.2,0.4,0.2,0.6c0,0.2-0.1,0.4-0.3,0.6l-4.6,5.4l5.1,5.9
			C138.9,38.4,139,38.6,139,38.9z"/>
	</g>
</g>
</svg>
